<?xml version="1.0" encoding="UTF-8"?>
<svg width="48px" height="49px" viewBox="0 0 48 49" version="1.1" xmlns="http://www.w3.org/2000/svg" xmlns:xlink="http://www.w3.org/1999/xlink">
    <title>admin-icon</title>
    <g id="页面-1" stroke="none" stroke-width="1" fill="none" fill-rule="evenodd">
        <g id="admin-icon" transform="translate(1.000000, 1.235294)" fill-rule="nonzero">
            <circle id="椭圆形" stroke="#E9EDF3" stroke-width="2" fill="#FFFFFF" cx="23" cy="23" r="23"></circle>
            <g id="编组" transform="translate(9.000000, 9.000000)">
                <polygon id="路径" fill="#92A0B3" points="27 19.591875 25.40925 18 22.5 20.910375 19.59075 18 18 19.591875 20.90925 22.5 18 25.40925 19.59075 27 22.5 24.09075 25.40925 27 27 25.40925 24.09075 22.5"></polygon>
                <path d="M23.3333333,0 C20.7573369,0.00321397304 18.6698806,2.09067028 18.6666667,4.66666667 C18.6709621,5.49708549 18.8995133,6.31092116 19.3281667,7.02216667 L7.02216667,19.3281667 C6.310898,18.8995669 5.49707737,18.6710199 4.66666667,18.6666667 C2.08933783,18.6666667 0,20.7560045 0,23.3333333 C0,25.9106622 2.08933783,28 4.66666667,28 C7.2439955,28 9.33333333,25.9106622 9.33333333,23.3333333 C9.32903787,22.5029145 9.10048669,21.6890788 8.67183333,20.9778333 L20.9778333,8.67183333 C21.689102,9.10043312 22.5029226,9.32898007 23.3333333,9.33333333 C25.9106622,9.33333333 28,7.2439955 28,4.66666667 C28,2.08933783 25.9106622,0 23.3333333,0 Z M4.66666667,25.6666667 C3.37800225,25.6666667 2.33333333,24.6219977 2.33333333,23.3333333 C2.33333333,22.0446689 3.37800225,21 4.66666667,21 C5.95533108,21 7,22.0446689 7,23.3333333 C6.9987138,24.6214646 5.95479794,25.6653805 4.66666667,25.6666667 Z M23.3333333,7 C22.0446689,7 21,5.95533108 21,4.66666667 C21,3.37800225 22.0446689,2.33333333 23.3333333,2.33333333 C24.6219977,2.33333333 25.6666667,3.37800225 25.6666667,4.66666667 C25.6653805,5.95479794 24.6214646,6.9987138 23.3333333,7 L23.3333333,7 Z" id="形状" fill="#2D4665"></path>
                <polygon id="路径" fill="#2D4665" points="4.72727273 8.64684899 1.66636364 5.56718193 0 7.24375743 4.72727273 12 13 3.67657551 11.3336364 2"></polygon>
            </g>
        </g>
    </g>
</svg>