<?xml version="1.0" encoding="UTF-8"?>
<svg width="48px" height="49px" viewBox="0 0 48 49" version="1.1" xmlns="http://www.w3.org/2000/svg" xmlns:xlink="http://www.w3.org/1999/xlink">
    <title>datacenter-icon-hover</title>
    <g id="页面-1" stroke="none" stroke-width="1" fill="none" fill-rule="evenodd">
        <g id="datacenter-icon-hover" transform="translate(1.000000, 1.058824)" fill-rule="nonzero">
            <circle id="椭圆形" stroke="#CDDFFF" stroke-width="2" fill="#FFFFFF" cx="23" cy="23" r="23"></circle>
            <g id="编组" transform="translate(10.000000, 10.000000)" fill="#1B6DFF">
                <path d="M0,1.125 C0,0.503679656 0.503856166,0 1.12517237,0 C1.74648858,0 2.25016488,0.503679656 2.25016488,1.125 L2.25016488,10.512 L7.7251284,7.629 C8.07015931,7.44770799 8.48444444,7.4579233 8.82012111,7.656 L14.5500829,11.025 L22.950027,4.725 C23.2909196,4.46932886 23.7470049,4.42820339 24.1281344,4.61876941 C24.5092639,4.80933543 24.750015,5.19888143 24.750015,5.625 L24.750015,24.75 L25.8750075,24.75 C26.4963237,24.75 27,25.2536797 27,25.875 C27,26.4963203 26.4963237,27 25.8750075,27 L1.12517237,27 C0.503856166,27 0,26.4963203 0,25.875 L0,12.396 C0,12.3825011 0,12.3689989 0,12.3555 L0,1.125 L0,1.125 Z M2.25016488,13.0545 L2.25016488,24.75 L22.50003,24.75 L22.50003,7.875 L15.3000779,13.275 C14.9369515,13.5469182 14.4460366,13.5741257 14.0550862,13.344 L8.22012511,9.912 L2.25016488,13.0545 Z" id="形状"></path>
            </g>
        </g>
    </g>
</svg>