<?xml version="1.0" encoding="UTF-8"?>
<svg width="48px" height="49px" viewBox="0 0 48 49" version="1.1" xmlns="http://www.w3.org/2000/svg" xmlns:xlink="http://www.w3.org/1999/xlink">
    <title>example-icon</title>
    <g id="页面-1" stroke="none" stroke-width="1" fill="none" fill-rule="evenodd">
        <g id="example-icon" transform="translate(1.000000, 1.882353)" fill-rule="nonzero">
            <circle id="椭圆形" stroke="#E9EDF3" stroke-width="2" fill="#FFFFFF" cx="23" cy="23" r="23"></circle>
            <g id="编组" transform="translate(13.000000, 9.000000)">
                <polygon id="路径" fill="#92A0B3" points="5.00995505 22 15.009955 22 15.009955 24 5.00995505 24"></polygon>
                <polygon id="路径" fill="#92A0B3" points="7.00995505 26 13.009955 26 13.009955 28 7.00995505 28"></polygon>
                <path d="M10.009955,0 C4.48710755,0 0.0099550499,4.4771525 0.0099550499,10 C-0.127230466,12.9482372 1.15992887,15.7829639 3.46995505,17.62 C4.46995505,18.55 5.00995505,19.08 5.00995505,20 L7.00995505,20 C7.00995505,18.16 5.89995505,17.13 4.81995505,16.14 C2.92213434,14.6866794 1.86932214,12.3862285 2.00995505,10 C2.00995512,5.58172205 5.5916771,2 10.009955,2 C14.428233,2 18.009955,5.58172205 18.009955,10 C18.1482551,12.3880382 17.0915332,14.6888439 15.189955,16.14 C14.119955,17.14 13.009955,18.14 13.009955,20 L15.009955,20 C15.009955,19.08 15.539955,18.55 16.549955,17.61 C18.8583758,15.7761041 20.1455352,12.9450974 20.009955,10 C20.009955,7.3478351 18.9563866,4.80429597 17.0810229,2.92893219 C15.2056591,1.0535684 12.6621199,0 10.009955,0 Z" id="路径" fill="#2D4665"></path>
            </g>
        </g>
    </g>
</svg>