<?xml version="1.0" encoding="UTF-8"?>
<svg width="48px" height="48px" viewBox="0 0 48 48" version="1.1" xmlns="http://www.w3.org/2000/svg" xmlns:xlink="http://www.w3.org/1999/xlink">
    <title>guide-installation-icon</title>
    <g id="页面-1" stroke="none" stroke-width="1" fill="none" fill-rule="evenodd">
        <g id="guide-installation-icon" transform="translate(1.000000, 1.000000)">
            <circle id="椭圆形" stroke="#E9EDF3" stroke-width="2" fill="#FFFFFF" fill-rule="nonzero" cx="23" cy="23" r="23"></circle>
            <path d="M12,34 C12,33.4477153 12.4477153,33 13,33 L33,33 C33.5522847,33 34,33.4477153 34,34 C34,34.5522847 33.5522847,35 33,35 L13,35 C12.4477153,35 12,34.5522847 12,34 Z" id="路径" fill="#92A0B3"></path>
            <path d="M30.192417,12.4603322 L19.3029491,23.5477954 C18.5289685,24.3358486 17.26269,24.3472568 16.4746367,23.5732763 C16.466275,23.5650639 16.4579857,23.5567782 16.4497697,23.5484202 L13.8108626,20.8638846 C13.3608047,20.4060448 13.3608047,19.6719583 13.8108626,19.2141186 C14.251078,18.7662915 14.9709787,18.7601211 15.4188058,19.2003365 C15.4234391,19.2048911 15.4280333,19.2094852 15.4325879,19.2141186 L16.4503946,20.2495239 C17.2247202,21.0372381 18.4910036,21.0480917 19.2787178,20.2737661 C19.2868677,20.2657548 19.2949487,20.2576737 19.3029601,20.2495239 L28.5703317,10.8219129 C29.0105259,10.3741075 29.7303918,10.3679373 30.1781973,10.8081315 C30.1818686,10.8117405 30.1855154,10.8153743 30.1891374,10.8190328 C30.6387918,11.2732179 30.6402528,12.0043538 30.192417,12.4603322 Z M26.375,23.375 L25,23.375 C24.4477153,23.375 24,23.8227153 24,24.375 L24,24.625 C24,25.1772847 24.4477153,25.625 25,25.625 L26.375,25.625 C26.9272847,25.625 27.375,26.0727153 27.375,26.625 L27.375,28 C27.375,28.5522847 27.8227153,29 28.375,29 L28.625,29 C29.1772847,29 29.625,28.5522847 29.625,28 L29.625,26.625 C29.625,26.0727153 30.0727153,25.625 30.625,25.625 L32,25.625 C32.5522847,25.625 33,25.1772847 33,24.625 L33,24.375 C33,23.8227153 32.5522847,23.375 32,23.375 L30.625,23.375 C30.0727153,23.375 29.625,22.9272847 29.625,22.375 L29.625,21 C29.625,20.4477153 29.1772847,20 28.625,20 L28.375,20 C27.8227153,20 27.375,20.4477153 27.375,21 L27.375,22.375 C27.375,22.9272847 26.9272847,23.375 26.375,23.375 Z" id="形状" fill="#2D4665" fill-rule="nonzero"></path>
        </g>
    </g>
</svg>