<?xml version="1.0" encoding="UTF-8"?>
<svg width="48px" height="49px" viewBox="0 0 48 49" version="1.1" xmlns="http://www.w3.org/2000/svg" xmlns:xlink="http://www.w3.org/1999/xlink">
    <title>looklook-icon-hover</title>
    <g id="页面-1" stroke="none" stroke-width="1" fill="none" fill-rule="evenodd">
        <g id="looklook-icon-hover" transform="translate(1.000000, 1.529412)" fill-rule="nonzero">
            <circle id="椭圆形" stroke="#CDDFFF" stroke-width="2" fill="#FFFFFF" cx="23" cy="23" r="23"></circle>
            <g id="编组" transform="translate(8.000000, 16.000000)" fill="#1B6DFF">
                <path d="M14.9990073,5.45454545 C10.2475119,5.45454545 6.2902147,8.91818182 5.53709585,13.4454545 C5.40016515,14.2636364 6.07112558,15 6.90640285,15 C7.57736329,15 8.13877916,14.5090909 8.24832372,13.8409091 C8.80973959,10.6227273 11.616819,8.18181818 14.9990073,8.18181818 C18.3811956,8.18181818 21.1882749,10.6227273 21.7496908,13.8409091 C21.8592354,14.5090909 22.4206512,15 23.0916117,15 C23.9268889,15 24.5841563,14.2636364 24.4472256,13.4454545 C23.6837742,8.83932124 19.6868773,5.45891255 14.9990073,5.45454545 L14.9990073,5.45454545 Z M14.9990073,0 C7.19395733,0 0.771907469,5.91818182 0.00509554545,13.5 C-0.0633698048,14.3045455 0.566511418,15 1.38809562,15 C2.08644219,15 2.67524421,14.4818182 2.74370956,13.8 C3.34620464,7.59545455 8.61803661,2.72727273 14.9990073,2.72727273 C21.3799779,2.72727273 26.6518099,7.59545455 27.267998,13.8 C27.3364634,14.4818182 27.9252654,15 28.623612,15 C29.4315031,15 30.0750774,14.3045455 29.992919,13.5 C29.226107,5.91818182 22.8040572,0 14.9990073,0 Z" id="形状"></path>
            </g>
        </g>
    </g>
</svg>