<?xml version="1.0" encoding="UTF-8"?>
<svg width="48px" height="49px" viewBox="0 0 48 49" version="1.1" xmlns="http://www.w3.org/2000/svg" xmlns:xlink="http://www.w3.org/1999/xlink">
    <title>mall-icon</title>
    <g id="页面-1" stroke="none" stroke-width="1" fill="none" fill-rule="evenodd">
        <g id="mall-icon" transform="translate(1.000000, 1.176471)" fill-rule="nonzero">
            <circle id="椭圆形" stroke="#E9EDF3" stroke-width="2" fill="#FFFFFF" cx="23" cy="23" r="23"></circle>
            <g id="编组" transform="translate(11.000000, 9.000000)" fill="#2D4665">
                <path d="M21.3333333,6.66666667 L18.6666667,6.66666667 C18.6666667,2.98666667 15.68,0 12,0 C8.32,0 5.33333333,2.98666667 5.33333333,6.66666667 L2.66666667,6.66666667 C1.2,6.66666667 0,7.86666667 0,9.33333333 L0,25.3333333 C0,26.8 1.2,28 2.66666667,28 L21.3333333,28 C22.8,28 24,26.8 24,25.3333333 L24,9.33333333 C24,7.86666667 22.8,6.66666667 21.3333333,6.66666667 Z M12,2.66666667 C14.2133333,2.66666667 16,4.45333333 16,6.66666667 L8,6.66666667 C8,4.45333333 9.78666667,2.66666667 12,2.66666667 Z M21.3333333,25.3333333 L2.66666667,25.3333333 L2.66666667,9.33333333 L21.3333333,9.33333333 L21.3333333,25.3333333 Z M12,14.6666667 C9.78666667,14.6666667 8,12.88 8,10.6666667 L5.33333333,10.6666667 C5.33333333,14.3466667 8.32,17.3333333 12,17.3333333 C15.68,17.3333333 18.6666667,14.3466667 18.6666667,10.6666667 L16,10.6666667 C16,12.88 14.2133333,14.6666667 12,14.6666667 Z" id="形状"></path>
            </g>
        </g>
    </g>
</svg>