<?xml version="1.0" encoding="UTF-8"?>
<svg width="48px" height="49px" viewBox="0 0 48 49" version="1.1" xmlns="http://www.w3.org/2000/svg" xmlns:xlink="http://www.w3.org/1999/xlink">
    <title>ui-icon-hover</title>
    <g id="页面-1" stroke="none" stroke-width="1" fill="none" fill-rule="evenodd">
        <g id="ui-icon-hover" transform="translate(1.000000, 1.588235)" fill-rule="nonzero">
            <circle id="椭圆形" stroke="#CDDFFF" stroke-width="2" fill="#FFFFFF" cx="23" cy="23" r="23"></circle>
            <g id="编组" transform="translate(10.000000, 10.000000)" fill="#1B6DFF">
                <path d="M26.5676379,6.70096448 C26.8444441,6.42472522 27,6.04972392 27,5.6586615 C27,5.26759907 26.8444441,4.89259777 26.5676379,4.61635851 L22.3836415,0.432362112 C22.1074022,0.155555875 21.7324009,0 21.3413385,0 C20.9502761,0 20.5752748,0.155555875 20.2990355,0.432362112 L13.6608222,7.07057547 L7.90967516,1.31942849 C6.75648888,0.1662422 4.87886505,0.1662422 3.72567877,1.31942849 L0.916635253,4.128472 C-0.236551033,5.28165829 -0.236551033,7.15928211 0.916635253,8.3124684 L6.66778224,14.0636154 L0,20.7313976 L0,27 L6.26860237,27 L12.9511691,20.3174333 L18.702316,26.0685803 C20.1068378,27.4731021 21.9992461,26.9556467 22.8863124,26.0685803 L25.695356,23.2595368 C26.8485422,22.1063505 26.8485422,20.2287267 25.695356,19.0755404 L19.944209,13.3243934 L26.5676379,6.70096448 Z M3.01602567,6.21307798 L5.81028475,3.40403446 L7.68790857,5.28165829 L5.9433447,7.04100659 L8.02795068,9.12561257 L9.78729899,7.36626427 L11.5614317,9.14039701 L8.75238822,11.9494405 L3.01602567,6.21307798 L3.01602567,6.21307798 Z M19.6189513,17.212701 L17.859603,18.9720493 L19.944209,21.0566553 L21.7035573,19.297307 L23.5811811,21.1749308 L20.7721376,23.9839743 L15.0209906,18.2328273 L17.8300341,15.4237838 L19.6189513,17.212701 L19.6189513,17.212701 Z M5.04149389,24.0431121 L2.95688791,24.0431121 L2.95688791,21.9585061 L17.1647343,7.75065969 L19.0867115,9.67263684 L19.2493403,9.83526567 L5.04149389,24.0431121 Z M19.2493403,5.65126928 L21.3339463,3.5666633 L23.4185523,5.65126928 L21.3339463,7.73587525 L19.2493403,5.65126928 Z" id="形状"></path>
            </g>
        </g>
    </g>
</svg>