<?xml version="1.0" standalone="no"?><!DOCTYPE svg PUBLIC "-//W3C//DTD SVG 1.1//EN" "http://www.w3.org/Graphics/SVG/1.1/DTD/svg11.dtd"><svg t="1650629457008" class="icon" viewBox="0 0 1024 1024" version="1.1" xmlns="http://www.w3.org/2000/svg" p-id="2197" xmlns:xlink="http://www.w3.org/1999/xlink" width="240" height="240"><defs><style type="text/css"></style></defs><path d="M509.679218 792.998603a20.276825 20.276825 0 0 1-10.244064-2.775365l-225.129651-131.470222a20.325587 20.325587 0 0 1-10.073396-17.643683l1.29219-260.70146a20.31746 20.31746 0 0 1 10.244064-17.542095l226.425904-129.231238a20.329651 20.329651 0 0 1 20.317461 0.097523l225.125587 131.474286a20.325587 20.325587 0 0 1 10.073397 17.647746l-1.292191 260.705524a20.31746 20.31746 0 0 1-10.244063 17.546159l-226.425905 129.223111a20.260571 20.260571 0 0 1-10.069333 2.669714zM304.923916 629.581206l204.873143 119.641397 206.047492-117.593397 1.174349-237.246984-204.869079-119.641397L306.102329 392.342349l-1.178413 237.238857z" fill="#8C8C8C" p-id="2198"></path><path d="M508.825884 964.417016a20.276825 20.276825 0 0 1-10.244063-2.775365l-373.150476-217.92508a20.325587 20.325587 0 0 1-10.073397-17.643682l2.145524-432.103619a20.31746 20.31746 0 0 1 10.244063-17.542095l375.296-214.202921a20.329651 20.329651 0 0 1 20.317461 0.097524l373.154539 217.916952a20.325587 20.325587 0 0 1 10.073397 17.647746l-2.14146 432.11581a20.31746 20.31746 0 0 1-10.244064 17.546158l-375.300063 214.194794a20.31746 20.31746 0 0 1-10.077461 2.673778z m-352.776127-249.872254l352.893969 206.096254 354.925714-202.565079 2.023619-408.661334-352.893968-206.088127-354.917588 202.57727-2.031746 408.641016z" fill="#B2B2B2" p-id="2199"></path><path d="M971.153757 801.336889c-3.433651 0-6.907937-0.869587-10.097777-2.702222L42.706773 271.303111a20.31746 20.31746 0 1 1 20.236191-35.238603l918.349206 527.331555a20.31746 20.31746 0 0 1-10.138413 37.940826z" fill="#FFBF00" p-id="2200"></path><path d="M52.845186 801.336889a20.31746 20.31746 0 0 1-10.130286-37.944889L943.127853 246.820571a20.31746 20.31746 0 0 1 27.733333 7.513397 20.31746 20.31746 0 0 1-7.513397 27.733334L62.934837 798.63873a20.21181 20.21181 0 0 1-10.089651 2.698159z" fill="#FF4000" p-id="2201"></path><path d="M508.411408 1024a20.31746 20.31746 0 0 1-20.31746-20.31746V20.31746a20.31746 20.31746 0 0 1 40.634921 0v983.36508a20.31746 20.31746 0 0 1-20.317461 20.31746z" fill="#FF7F00" p-id="2202"></path></svg>