<?xml version="1.0" standalone="no"?><!DOCTYPE svg PUBLIC "-//W3C//DTD SVG 1.1//EN" "http://www.w3.org/Graphics/SVG/1.1/DTD/svg11.dtd"><svg t="1650628635380" class="icon" viewBox="0 0 1024 1024" version="1.1" xmlns="http://www.w3.org/2000/svg" p-id="2028" xmlns:xlink="http://www.w3.org/1999/xlink" width="240" height="240"><defs><style type="text/css"></style></defs><path d="M389.630691 831.113377h244.726701v165.778165H389.630691z" fill="#B2B2B2" p-id="2029"></path><path d="M770.525165 1023.99583h-517.066417a27.104288 27.104288 0 1 1 0-54.208576h517.066417a27.104288 27.104288 0 1 1 0 54.208576z" fill="#8C8C8C" p-id="2030"></path><path d="M987.622172 788.296942c0 34.401596-28.146761 62.548357-62.548357 62.548357H98.914268c-34.401596 0-62.548357-28.146761-62.548357-62.548357V187.123834c0-34.401596 28.146761-62.548357 62.548357-62.548357h826.159547c34.401596 0 62.548357 28.146761 62.548357 62.548357v601.173108z" fill="#3F3F3F" p-id="2031"></path><path d="M928.664091 607.844932c0 22.934398-18.764507 41.698905-41.698905 41.698905H137.022897c-22.934398 0-41.698905-18.764507-41.698905-41.698905V225.236633c0-22.934398 18.764507-41.698905 41.698905-41.698904h749.942289c22.934398 0 41.698905 18.764507 41.698905 41.698904v382.608299z" fill="#828282" p-id="2032"></path><path d="M389.630691 850.845299h244.726701v43.421069H389.630691z" opacity=".13" p-id="2033"></path><path d="M36.365911 708.747942v94.735741c0 32.566844 26.6456 59.204105 59.204105 59.204105h832.843881c32.571014 0 59.208275-26.6456 59.208275-59.204105v-94.735741H36.365911z" fill="#F5F5F5" p-id="2034"></path><path d="M728.605256 155.32842c18.109834 34.459975 28.363595 73.686134 28.363595 115.297471 0 137.131018-111.1526 248.287788-248.283618 248.287787S260.397446 407.761078 260.397446 270.634231a247.80825 247.80825 0 0 1 16.396009-88.860366c-20.053003 37.349709-31.440974 80.045217-31.440974 125.405286 0 146.617518 118.862728 265.480246 265.484416 265.480246s265.480246-118.862728 265.480246-265.480246c-0.00417-56.468657-17.655316-108.817461-47.711887-151.850731z" opacity=".12" p-id="2035"></path><path d="M510.832727 307.18332m-265.480246 0a265.480246 265.480246 0 1 0 530.960492 0 265.480246 265.480246 0 1 0-530.960492 0Z" opacity=".16" p-id="2036"></path><path d="M490.354395 420.887893a41.565468 41.565468 0 0 1-29.485296-12.213609L367.417684 315.231209c-16.283422-16.283422-16.287592-42.687169 0-58.970591s42.687169-16.287592 58.970591 0l63.96612 63.96195 115.581024-115.585194c16.287592-16.283422 42.682999-16.283422 58.97476 0 16.283422 16.283422 16.283422 42.687169 0 58.974761l-145.066319 145.066319a41.607167 41.607167 0 0 1-29.489465 12.209439z" opacity=".16" p-id="2037"></path><path d="M728.605256 155.32842c18.109834 34.459975 28.363595 73.686134 28.363595 115.297471 0 137.131018-111.1526 248.287788-248.283618 248.287787S260.397446 407.761078 260.397446 270.634231a247.80825 247.80825 0 0 1 16.396009-88.860366c-20.053003 37.349709-31.440974 80.045217-31.440974 125.405286 0 146.617518 118.862728 265.480246 265.484416 265.480246s265.480246-118.862728 265.480246-265.480246c-0.00417-56.468657-17.655316-108.817461-47.711887-151.850731z" opacity=".12" p-id="2038"></path><path d="M728.605256 113.629515c18.109834 34.459975 28.363595 73.686134 28.363595 115.297471 0 137.131018-111.1526 248.287788-248.283618 248.287788S260.397446 366.062174 260.397446 228.935326a247.80825 247.80825 0 0 1 16.396009-88.860366c-20.053003 37.349709-31.440974 80.045217-31.440974 125.405286 0 146.617518 118.862728 265.480246 265.484416 265.480246s265.480246-118.862728 265.480246-265.480246c-0.00417-56.468657-17.655316-108.817461-47.711887-151.850731z" fill="#006B33" opacity=".12" p-id="2039"></path><path d="M510.832727 265.484416m-265.480246 0a265.480246 265.480246 0 1 0 530.960492 0 265.480246 265.480246 0 1 0-530.960492 0Z" fill="#75D978" p-id="2040"></path><path d="M490.354395 379.188989a41.565468 41.565468 0 0 1-29.485296-12.213609L367.417684 273.532304c-16.283422-16.283422-16.287592-42.687169 0-58.97059s42.687169-16.287592 58.970591 0l63.96612 63.961949 115.581024-115.585193c16.287592-16.283422 42.682999-16.283422 58.97476 0 16.283422 16.283422 16.283422 42.687169 0 58.97476l-145.066319 145.06632a41.607167 41.607167 0 0 1-29.489465 12.209439z" fill="#FFFFFF" p-id="2041"></path><path d="M728.605256 113.629515c18.109834 34.459975 28.363595 73.686134 28.363595 115.297471 0 137.131018-111.1526 248.287788-248.283618 248.287788S260.397446 366.062174 260.397446 228.935326a247.80825 247.80825 0 0 1 16.396009-88.860366c-20.053003 37.349709-31.440974 80.045217-31.440974 125.405286 0 146.617518 118.862728 265.480246 265.484416 265.480246s265.480246-118.862728 265.480246-265.480246c-0.00417-56.468657-17.655316-108.817461-47.711887-151.850731z" fill="#666666" opacity=".12" p-id="2042"></path></svg>