<?xml version="1.0" standalone="no"?><!DOCTYPE svg PUBLIC "-//W3C//DTD SVG 1.1//EN" "http://www.w3.org/Graphics/SVG/1.1/DTD/svg11.dtd"><svg t="1650628500866" class="icon" viewBox="0 0 1024 1024" version="1.1" xmlns="http://www.w3.org/2000/svg" p-id="1690" xmlns:xlink="http://www.w3.org/1999/xlink" width="240" height="240"><defs><style type="text/css"></style></defs><path d="M512 512m-463.737705 0a463.737705 463.737705 0 1 0 927.47541 0 463.737705 463.737705 0 1 0-927.47541 0Z" fill="#F5F5F5" p-id="1691"></path><path d="M512 1024C229.682361 1024 0 794.317639 0 512S229.682361 0 512 0s512 229.682361 512 512-229.682361 512-512 512z m0-927.47541c-229.09482 0-415.47541 186.38059-415.47541 415.47541s186.38059 415.47541 415.47541 415.47541 415.47541-186.38059 415.47541-415.47541-186.38059-415.47541-415.47541-415.47541z" fill="#8C8C8C" p-id="1692"></path><path d="M521.70282 557.744262m-55.577181 0a55.57718 55.57718 0 1 0 111.154361 0 55.57718 55.57718 0 1 0-111.154361 0Z" fill="#FFFFFF" p-id="1693"></path><path d="M521.70282 640.600131c-45.685508 0-82.855869-37.166164-82.855869-82.851672 0-45.685508 37.166164-82.855869 82.855869-82.855869 45.689705 0 82.860066 37.170361 82.860065 82.855869 0.004197 45.681311-37.170361 82.851672-82.860065 82.851672z m0-111.154361c-15.60341 0-28.298492 12.695082-28.298492 28.298492s12.695082 28.294295 28.298492 28.294295c15.607607 0 28.302689-12.690885 28.302688-28.294295s-12.695082-28.298492-28.302688-28.298492z" fill="#FF4000" p-id="1694"></path><path d="M210.679607 594.683803c-18.310295 0-34.392131-13.345574-37.279476-32-28.000525-181.050754 96.516197-351.127082 277.571148-379.127606 64.843541-10.017574 130.471869-0.839344 189.817705 26.552655a37.762098 37.762098 0 0 1 18.45718 50.121443 37.757902 37.757902 0 0 1-50.121443 18.461377c-45.81141-21.147279-96.503607-28.231344-146.612459-20.484197-139.885115 21.634098-236.094951 153.041836-214.460852 292.926951a37.770492 37.770492 0 0 1-37.371803 43.549377z" fill="#FF7F00" p-id="1695"></path><path d="M562.805508 539.992131a27.287082 27.287082 0 0 1-21.990819-43.394098l144.476327-197.33823a27.278689 27.278689 0 0 1 44.023607 32.226623l-144.476328 197.33823a27.236721 27.236721 0 0 1-22.032787 11.167475z" fill="#FF4000" p-id="1696"></path></svg>