<?xml version="1.0" encoding="UTF-8"?>
<svg width="28px" height="27px" viewBox="0 0 28 27" version="1.1" xmlns="http://www.w3.org/2000/svg" xmlns:xlink="http://www.w3.org/1999/xlink">
    <title>github</title>
    <g id="页面-1" stroke="none" stroke-width="1" fill="none" fill-rule="evenodd">
        <g id="github" transform="translate(0.000000, -0.000000)">
            <path d="M13.6012996,0 C10.3717996,-0.00107325001 7.24734961,1.1474 4.78737961,3.23979 C2.32740961,5.33219 0.692527606,8.23188 0.175445606,11.4197 C-0.341637394,14.6075 0.292842606,17.8753 1.96528961,20.638 C3.63772961,23.4007 6.23893961,25.4779 9.30317961,26.4977 C9.97861961,26.6238 10.2307996,26.2028 10.2307996,25.8425 C10.2307996,25.5183 10.2194996,24.4489 10.2127996,23.3119 C6.43028961,24.1336 5.63325961,21.7088 5.63325961,21.7088 C5.01409961,20.1328 4.12250961,19.7185 4.12250961,19.7185 C2.88869961,18.8742 4.21482961,18.8922 4.21482961,18.8922 C5.58147961,18.989 6.29969961,20.2926 6.29969961,20.2926 C7.51324961,22.3707 9.48103961,21.7718 10.2555996,21.4184 C10.3793996,20.5403 10.7305996,19.9414 11.1200996,19.6014 C8.10988961,19.2614 4.92403961,18.0952 4.92403961,12.8852 C4.90382961,11.532 5.40624961,10.2232 6.32671961,9.23108 C6.18486961,8.88886 5.71881961,7.50645 6.45729961,5.62871 C6.45729961,5.62871 7.59879961,5.26397 10.1969996,7.02238 C12.4263996,6.41296 14.7783996,6.41296 17.0077996,7.02238 C19.5924996,5.27297 20.7429996,5.62871 20.7429996,5.62871 C21.4814996,7.50194 21.0175996,8.88435 20.8757996,9.23108 C21.7936996,10.2226 22.2944996,11.5297 22.2739996,12.8807 C22.2739996,18.1042 19.0948996,19.2524 16.0665996,19.5902 C16.5529996,20.0112 16.9874996,20.8397 16.9874996,22.1073 C16.9874996,23.9265 16.9739996,25.3922 16.9739996,25.838 C16.9739996,26.2005 17.2170996,26.6238 17.9060996,26.4909 C20.9658996,25.4673 23.5619996,23.3889 25.2302996,20.6272 C26.8985996,17.8655 27.5304996,14.6005 27.0129996,11.4158 C26.4953996,8.2311 24.8622996,5.33421 22.4052996,3.24289 C19.9482996,1.15157 16.8276996,0.00212683999 13.6012996,0 Z" id="路径" fill="#FFFFFF"></path>
            <path d="M5.15376961,19.5205 C5.12449961,19.588 5.01867961,19.6083 4.92861961,19.5633 C4.83856961,19.5182 4.77326961,19.4259 4.80478961,19.3584 C4.83630961,19.2908 4.94212961,19.2706 5.02993961,19.3156 C5.11774961,19.3606 5.18528961,19.4529 5.15151961,19.5205 L5.15376961,19.5205 Z" id="路径" fill="#000000" fill-rule="nonzero"></path>
            <path d="M5.70528961,20.1351 C5.63998961,20.1959 5.51390961,20.1666 5.42609961,20.072 C5.38505961,20.0388 5.35824961,19.9912 5.35112961,19.9389 C5.34401961,19.8866 5.35713961,19.8335 5.38782961,19.7906 C5.45536961,19.7298 5.57694961,19.7591 5.66700961,19.8536 C5.75706961,19.9482 5.77282961,20.0788 5.70528961,20.1351 Z" id="路径" fill="#000000" fill-rule="nonzero"></path>
            <path d="M6.24121961,20.9184 C6.15790961,20.9769 6.01606961,20.9184 5.93726961,20.8013 C5.85845961,20.6842 5.85395961,20.5356 5.93726961,20.4771 C6.02056961,20.4186 6.16240961,20.4771 6.24121961,20.5919 C6.32001961,20.7068 6.32451961,20.8599 6.24121961,20.9184 Z" id="路径" fill="#000000" fill-rule="nonzero"></path>
            <path d="M6.98413961,21.675 C6.95674961,21.6948 6.92568961,21.709 6.89276961,21.7167 C6.85983961,21.7243 6.82571961,21.7254 6.79238961,21.7197 C6.75905961,21.7141 6.72719961,21.7018 6.69864961,21.6837 C6.67010961,21.6656 6.64545961,21.642 6.62614961,21.6142 C6.50682961,21.5039 6.47304961,21.3485 6.54959961,21.2675 C6.62614961,21.1864 6.77474961,21.2067 6.90083961,21.3193 C7.02691961,21.4318 7.05393961,21.5849 6.97512961,21.666 L6.98413961,21.675 Z" id="路径" fill="#000000" fill-rule="nonzero"></path>
            <path d="M7.98832961,22.114 C7.95455961,22.2198 7.80370961,22.2694 7.64835961,22.2243 C7.49300961,22.1793 7.39393961,22.0532 7.42320961,21.9451 C7.45247961,21.8371 7.60782961,21.7875 7.76317961,21.8348 C7.91853961,21.8821 8.01759961,22.0059 7.98832961,22.114 Z" id="路径" fill="#000000" fill-rule="nonzero"></path>
            <path d="M9.10049961,22.195 C9.10049961,22.3076 8.97440961,22.3999 8.81230961,22.4021 C8.65019961,22.4044 8.51960961,22.3166 8.51735961,22.204 C8.51510961,22.0914 8.64344961,21.9991 8.80779961,21.9969 C8.97215961,21.9946 9.10049961,22.0847 9.10049961,22.195 Z" id="路径" fill="#000000" fill-rule="nonzero"></path>
            <path d="M10.1361996,22.0194 C10.1564996,22.1298 10.0438996,22.2446 9.88402961,22.2716 C9.72416961,22.2986 9.58007961,22.2333 9.55981961,22.123 C9.53954961,22.0127 9.65437961,21.8979 9.81197961,21.8708 C9.96958961,21.8438 10.1158996,21.9091 10.1361996,22.0194 Z" id="路径" fill="#FFFFFF" fill-rule="nonzero"></path>
        </g>
    </g>
</svg>